<?xml version="1.0" standalone="no"?>
<!DOCTYPE svg PUBLIC "-//W3C//DTD SVG 20010904//EN"
 "http://www.w3.org/TR/2001/REC-SVG-20010904/DTD/svg10.dtd">
<svg version="1.0" xmlns="http://www.w3.org/2000/svg"
 width="300.000000pt" height="300.000000pt" viewBox="0 0 300.000000 300.000000"
 preserveAspectRatio="xMidYMid meet">
<metadata>
Created by potrace 1.11, written by Peter Selinger 2001-2013
</metadata>
<g transform="translate(0.000000,300.000000) scale(0.100000,-0.100000)"
fill="#000000" stroke="none">
<path d="M2056 2803 c-2 -2 -23 -5 -47 -7 -24 -3 -66 -10 -94 -16 -27 -7 -54
-13 -60 -14 -5 -1 -35 -11 -65 -23 -90 -35 -95 -36 -102 -35 -5 1 -8 -2 -8 -6
0 -4 -16 -14 -36 -21 -19 -7 -63 -29 -97 -48 -34 -20 -68 -36 -74 -36 -7 0
-13 -4 -13 -8 0 -6 -8 -9 -45 -18 -5 -2 -16 -7 -23 -13 -19 -16 -88 -13 -117
6 -15 10 -40 37 -57 61 -31 43 -31 44 -59 29 -30 -15 -69 -79 -69 -113 0 -30
-13 -33 -77 -16 -173 47 -351 -14 -441 -151 -17 -25 -49 -56 -70 -68 -33 -17
-102 -71 -156 -122 -26 -24 -85 -45 -141 -51 -33 -3 -64 -9 -69 -13 -12 -12
48 -119 96 -168 23 -24 59 -55 80 -69 21 -14 38 -27 38 -30 0 -9 -148 -74
-183 -80 -20 -3 -40 -9 -42 -13 -8 -13 53 -88 104 -128 72 -57 127 -81 194
-84 l58 -3 -5 -30 c-4 -16 -8 -40 -10 -51 -12 -62 -100 -174 -148 -189 -9 -3
-19 -12 -22 -20 -7 -18 52 -50 110 -59 36 -6 43 -11 48 -38 13 -67 15 -65 -83
-84 -8 -1 -20 -9 -28 -17 -13 -13 -12 -20 9 -53 36 -59 56 -120 67 -209 12
-97 25 -135 66 -201 40 -62 104 -118 161 -140 27 -10 41 -21 37 -28 -26 -41
17 -101 99 -136 42 -18 70 -23 133 -23 124 1 154 18 293 167 90 97 150 104
337 41 184 -62 293 -73 432 -44 417 89 775 493 858 968 7 43 -7 60 -48 55 -47
-5 -226 -17 -442 -29 -190 -10 -197 -11 -209 -32 -6 -10 -11 -20 -11 -23 -8
-54 -79 -163 -125 -194 -77 -50 -190 -41 -248 21 -115 124 -87 375 74 667 28
49 147 161 198 186 55 26 141 32 179 11 46 -24 54 -109 20 -216 -9 -27 -19
-55 -24 -60 -23 -29 9 -33 266 -29 143 2 290 3 327 4 l67 0 11 38 c6 20 14 96
17 167 4 108 1 146 -16 223 -20 91 -80 233 -120 282 -101 127 -179 196 -263
232 -16 7 -28 16 -28 20 0 4 -9 8 -19 8 -11 0 -21 4 -23 8 -5 13 -139 51 -203
58 -79 8 -154 11 -159 7z"/>
</g>
</svg>
